<?xml version="1.0" standalone="no"?>
<!DOCTYPE svg PUBLIC "-//W3C//DTD SVG 20010904//EN"
 "http://www.w3.org/TR/2001/REC-SVG-20010904/DTD/svg10.dtd">
<svg version="1.0" xmlns="http://www.w3.org/2000/svg"
 width="2000.000000pt" height="2000.000000pt" viewBox="0 0 2000.000000 2000.000000"
 preserveAspectRatio="xMidYMid meet">
<metadata>
Created by potrace 1.14, written by Peter Selinger 2001-2017
</metadata>
<g transform="translate(0.000000,2000.000000) scale(0.100000,-0.100000)"
fill="#000000" stroke="none">
<path d="M3757 18600 c-65 -43 -112 -98 -193 -226 -167 -268 -288 -554 -376
-894 -137 -532 -270 -770 -743 -1339 -11 -13 -29 -34 -40 -45 -160 -170 -209
-248 -323 -511 -21 -49 -60 -124 -87 -165 -116 -180 -715 -1183 -715 -1197 0
-4 -6 -14 -14 -22 -7 -9 -27 -41 -43 -71 -16 -30 -42 -74 -56 -97 -15 -24 -27
-45 -27 -47 0 -3 -29 -54 -64 -114 -35 -59 -81 -142 -103 -183 -22 -41 -51
-92 -63 -114 -28 -49 -260 -512 -260 -519 0 -3 -20 -47 -44 -98 -24 -51 -69
-154 -101 -228 -31 -74 -72 -157 -89 -185 -62 -94 -106 -184 -106 -214 0 -80
-57 -174 -126 -207 -45 -22 -94 -73 -115 -120 -22 -49 -26 -99 -15 -214 7 -80
6 -88 -19 -134 l-26 -49 33 -28 c52 -44 127 -77 226 -98 110 -24 167 -52 266
-130 85 -68 107 -104 137 -219 10 -42 24 -81 29 -86 6 -6 10 -18 10 -28 0 -10
3 -18 8 -18 4 0 24 -29 46 -63 31 -52 52 -72 107 -106 67 -41 139 -112 139
-136 0 -7 9 -20 21 -31 28 -25 85 -128 108 -195 47 -137 66 -159 335 -379 104
-85 194 -160 200 -165 6 -6 61 -53 121 -105 118 -102 357 -312 391 -345 11
-11 72 -67 135 -125 62 -58 147 -137 189 -176 41 -39 100 -95 130 -124 91 -85
444 -427 570 -550 301 -295 516 -496 770 -720 47 -41 87 -77 90 -80 4 -5 179
-155 239 -205 13 -11 29 -24 35 -30 6 -5 52 -44 101 -85 103 -86 114 -97 159
-165 85 -129 110 -309 71 -520 -11 -59 -102 -322 -145 -420 -5 -11 -26 -60
-46 -110 -110 -274 -229 -531 -322 -697 -18 -32 -66 -126 -108 -210 -142 -288
-174 -349 -265 -500 -87 -145 -126 -220 -182 -353 -65 -154 -186 -407 -393
-825 -188 -378 -262 -535 -308 -655 -15 -38 -31 -79 -37 -90 -19 -41 -108
-304 -144 -429 -33 -114 -36 -130 -22 -138 42 -23 77 -63 110 -125 51 -98 111
-151 271 -239 91 -50 176 -130 176 -164 0 -45 93 -83 189 -79 48 2 235 50 249
64 11 11 94 -60 142 -121 76 -97 131 -112 281 -78 39 9 85 13 103 10 34 -6
146 -80 146 -96 0 -4 16 -24 36 -44 34 -34 39 -36 104 -36 128 0 229 42 520
215 173 103 250 144 359 190 l74 31 62 190 c70 211 137 375 248 604 41 85 91
196 112 245 20 50 40 99 45 110 17 37 120 353 120 368 0 9 23 27 53 42 105 53
143 110 182 270 15 61 35 130 45 155 10 25 30 77 45 115 16 39 78 169 140 290
61 121 121 245 134 275 12 30 33 78 46 106 43 92 80 191 106 284 7 25 13 47
14 50 41 146 60 196 116 311 54 110 93 159 155 195 111 65 204 233 250 449 2
10 20 106 30 160 8 47 61 200 91 263 100 215 169 356 213 432 75 132 104 223
117 373 15 172 12 192 -45 305 -29 57 -63 119 -76 138 -14 22 -22 45 -19 62
13 99 8 344 -11 482 -13 94 -56 281 -82 359 -19 58 -66 151 -102 203 -65 95
-200 197 -307 233 -45 15 -60 29 -145 133 -181 221 -540 564 -765 732 -33 24
-66 50 -75 57 -8 6 -65 49 -125 95 -157 118 -430 336 -521 417 -22 20 -56 49
-75 65 -94 80 -195 172 -308 281 -190 184 -198 192 -332 310 -76 68 -300 256
-399 334 -110 88 -186 162 -385 376 -183 196 -212 221 -380 331 -141 92 -205
144 -236 192 -30 47 -31 67 -7 142 30 98 215 460 337 662 27 44 84 142 96 163
48 84 216 347 456 710 248 377 360 547 391 597 15 24 53 81 83 128 60 92 114
198 195 385 42 98 85 169 238 393 103 150 194 284 202 297 109 174 230 399
324 602 21 45 48 88 61 97 50 33 158 142 213 215 89 118 156 256 209 426 77
249 98 386 98 620 -1 139 -4 185 -21 290 -10 67 -53 205 -90 290 l-35 81 -82
12 c-45 7 -95 17 -112 22 -240 76 -298 88 -434 94 -88 4 -144 -8 -231 -51 -99
-49 -97 -48 -235 -47 -93 1 -147 7 -240 28 -115 27 -435 127 -506 159 -66 29
-255 100 -304 114 -27 7 -85 13 -128 12 -66 -2 -84 -6 -120 -29z"/>
<path d="M11748 18524 c-7 -7 -95 -14 -219 -19 -75 -2 -169 -7 -210 -10 -41
-3 -114 -7 -163 -10 -127 -7 -160 -18 -179 -58 -19 -38 -39 -58 -86 -82 -31
-16 -34 -16 -55 2 -46 40 -126 65 -214 66 -127 2 -189 -13 -411 -102 -57 -22
-107 -41 -113 -41 -5 0 -46 17 -91 39 -101 48 -116 51 -303 58 l-151 5 -39
-48 c-21 -27 -41 -51 -45 -54 -3 -3 -24 -26 -47 -51 l-41 -45 10 -70 c16 -104
15 -520 -1 -569 -7 -22 -16 -45 -21 -50 -7 -10 -5 -57 6 -115 3 -14 7 -52 10
-85 3 -33 8 -67 10 -75 2 -8 7 -49 10 -90 3 -41 8 -86 10 -100 6 -38 20 -221
30 -400 3 -58 8 -132 10 -165 2 -33 6 -100 10 -150 3 -49 8 -115 10 -145 3
-30 7 -86 10 -125 3 -38 7 -86 10 -105 9 -69 15 -137 20 -235 5 -98 11 -155
20 -205 3 -14 7 -45 10 -70 3 -25 12 -79 20 -120 16 -84 24 -174 40 -415 19
-290 27 -1849 11 -2095 -11 -173 -12 -178 -56 -455 -37 -236 -41 -278 -46
-550 -2 -126 -6 -259 -9 -295 -2 -36 -7 -231 -10 -435 -3 -203 -8 -419 -10
-480 -2 -60 -7 -247 -10 -415 -7 -383 -10 -420 -39 -478 -51 -103 -60 -150
-40 -226 16 -63 16 -117 -4 -306 -29 -273 -33 -822 -7 -1065 14 -130 25 -236
31 -295 3 -36 7 -77 9 -91 18 -151 25 -590 11 -714 -4 -38 -14 -104 -22 -145
-26 -136 -29 -182 -28 -475 0 -376 10 -605 33 -767 17 -124 22 -151 36 -215
14 -60 14 -64 -7 -99 -64 -109 -55 -407 19 -621 20 -59 24 -84 19 -130 -21
-208 -26 -505 -12 -753 20 -348 24 -859 7 -933 -7 -29 -8 -55 -2 -65 4 -9 23
-62 41 -117 43 -133 68 -192 100 -240 18 -27 31 -65 39 -120 12 -75 41 -199
60 -255 5 -14 19 -61 31 -105 12 -44 29 -101 37 -127 l14 -47 117 5 c130 5
202 20 283 59 56 27 66 32 139 79 43 27 47 28 90 16 109 -31 270 -33 400 -5
41 9 86 19 100 21 14 3 30 6 37 9 7 2 45 7 85 11 40 3 96 16 123 27 78 33 196
103 238 141 35 32 40 34 74 24 53 -14 99 -2 134 36 38 42 117 84 149 79 54 -8
121 -61 187 -146 79 -102 128 -137 192 -137 24 0 32 5 36 22 22 97 36 162 45
218 5 36 12 76 14 90 6 33 14 100 21 175 4 33 8 78 10 100 3 22 7 384 10 805
6 883 13 1441 19 1520 3 30 8 100 11 155 4 55 8 114 10 130 1 17 3 48 4 71 1
36 6 44 45 72 62 45 177 141 280 236 48 44 93 86 100 91 38 34 232 210 236
215 3 3 49 39 104 79 57 42 173 147 275 250 190 191 315 287 357 277 38 -10
176 -157 254 -272 92 -135 97 -141 193 -239 115 -115 180 -199 310 -396 96
-146 267 -375 328 -439 8 -8 32 -35 53 -60 21 -25 119 -128 216 -230 275 -286
347 -366 405 -449 22 -33 96 -137 165 -232 69 -95 136 -189 150 -208 103 -147
278 -389 292 -405 10 -11 18 -23 18 -27 0 -4 6 -14 13 -21 7 -7 24 -29 37 -48
13 -19 28 -39 33 -45 4 -5 41 -55 83 -110 129 -172 289 -369 431 -532 99 -113
235 -330 255 -407 11 -40 20 -53 53 -73 125 -78 226 -171 295 -273 24 -36 48
-69 52 -75 4 -5 28 -36 53 -67 25 -31 76 -82 113 -113 140 -117 139 -117 198
-101 70 19 149 54 224 99 158 97 230 124 331 126 46 1 114 60 198 170 32 42
88 106 124 142 61 62 68 66 114 67 26 1 58 4 69 6 12 3 37 7 57 10 84 13 207
72 264 125 63 59 222 121 311 121 36 0 50 9 139 86 54 48 132 113 174 145 126
96 185 162 239 269 22 43 26 85 15 140 -3 14 -8 64 -10 112 -3 63 -10 99 -26
129 -20 41 -97 123 -189 204 -52 45 -90 105 -90 140 0 16 -23 47 -73 97 -113
114 -142 154 -293 398 -133 215 -199 314 -234 350 -8 9 -27 31 -42 49 -15 19
-73 82 -129 142 -56 60 -120 132 -142 161 -50 67 -133 208 -185 314 -79 162
-237 374 -457 609 -21 22 -60 65 -89 95 -28 30 -89 98 -136 150 -47 52 -89
100 -95 106 -29 32 -131 149 -190 219 -61 74 -88 106 -185 221 -19 23 -42 50
-50 60 -8 11 -67 82 -130 159 -63 77 -120 147 -127 155 -7 8 -38 47 -69 85
-98 122 -112 139 -161 201 -26 33 -61 77 -78 98 -16 21 -38 48 -49 60 -37 43
-216 284 -289 391 -72 105 -237 363 -237 370 0 3 -67 121 -105 185 -9 14 -57
108 -109 210 l-93 185 39 58 c49 72 127 151 248 252 112 92 117 97 195 195 33
41 161 176 285 300 391 391 477 496 753 915 106 161 208 291 334 421 57 60
159 170 272 293 12 14 60 67 106 116 46 50 93 101 105 115 12 14 61 68 110
120 121 130 130 141 218 250 42 52 80 97 83 100 3 3 45 62 92 133 84 125 155
245 212 359 l28 58 -17 57 c-26 87 -33 195 -19 312 7 58 15 111 18 120 3 8 8
30 11 50 3 20 7 38 9 42 8 12 19 159 18 239 -1 123 -16 502 -22 582 -1 11
-193 138 -316 208 -196 113 -280 177 -468 362 -67 66 -161 146 -209 178 -148
99 -438 234 -908 422 -301 120 -499 214 -650 308 -8 5 -55 34 -105 63 -143 85
-497 323 -515 347 -15 20 -306 222 -350 243 -8 4 -46 26 -85 47 -99 57 -263
135 -380 182 -55 22 -106 48 -114 59 -7 10 -91 57 -185 104 -94 46 -194 98
-223 114 -63 36 -203 126 -220 140 -7 6 -27 21 -45 34 -18 12 -85 61 -148 108
-198 149 -271 197 -395 260 -99 50 -437 258 -455 279 -3 3 -30 23 -60 44 -98
69 -231 188 -390 346 -165 165 -252 235 -399 325 -97 59 -264 141 -348 171
-46 16 -56 26 -109 103 -63 93 -124 155 -154 157 -11 1 -21 0 -22 -2z m950
-3835 c59 -21 72 -26 132 -52 19 -8 60 -25 90 -37 30 -12 69 -28 86 -36 16 -7
82 -35 145 -62 126 -55 524 -231 634 -282 360 -165 894 -391 1144 -484 l149
-56 99 -98 c116 -117 205 -177 443 -299 286 -147 368 -195 380 -223 18 -44 78
-100 132 -125 29 -14 59 -25 67 -25 11 0 11 -3 0 -16 -14 -17 -33 -48 -45 -74
-20 -41 -131 -175 -183 -221 -32 -28 -64 -63 -71 -78 -11 -26 -22 -43 -95
-156 -48 -74 -179 -248 -222 -295 -17 -19 -41 -46 -53 -60 -33 -38 -133 -140
-297 -301 -352 -348 -575 -585 -681 -724 -147 -194 -222 -281 -269 -315 -59
-43 -175 -157 -282 -278 -105 -119 -38 -51 -621 -638 -278 -280 -557 -565
-620 -633 -63 -68 -121 -130 -128 -137 -8 -8 -39 -26 -69 -41 -31 -15 -72 -44
-91 -65 -36 -38 -71 -54 -127 -60 -26 -3 -30 1 -39 37 -13 48 -15 1713 -3
1880 21 288 36 357 103 486 38 71 40 80 49 184 3 39 7 86 10 105 2 19 6 67 9
105 3 39 8 99 11 135 13 167 16 221 30 455 9 140 16 828 18 1610 l2 800 24 52
c27 60 31 61 139 22z"/>
</g>
</svg>
